<svg width="16" height="16" viewBox="0 0 16 16" fill="none" xmlns="http://www.w3.org/2000/svg">
<path d="M14.2272 1H1.77281C1.56788 1.00008 1.37136 1.08153 1.22644 1.22644C1.08153 1.37136 1.00008 1.56788 1 1.77281V14.2272C1.00008 14.4321 1.08153 14.6286 1.22644 14.7736C1.37136 14.9185 1.56788 14.9999 1.77281 15H8V9.5H6.32656V7.5H8V5.90625C8 4.09812 9.25406 3.11375 10.8694 3.11375C11.6422 3.11375 12.4734 3.17187 12.6666 3.1975V5.08594H11.3797C10.5009 5.08594 10.3334 5.50156 10.3334 6.11406V7.5H12.4272L12.1538 9.5H10.3334V15H14.2272C14.4321 14.9999 14.6286 14.9185 14.7736 14.7736C14.9185 14.6286 14.9999 14.4321 15 14.2272V1.77281C14.9999 1.56788 14.9185 1.37136 14.7736 1.22644C14.6286 1.08153 14.4321 1.00008 14.2272 1V1Z" fill="white"/>
</svg>
