<svg width="16" height="16" viewBox="0 0 16 16" fill="none" xmlns="http://www.w3.org/2000/svg">
<path d="M13.8803 1H2.19625C1.55781 1 1 1.45937 1 2.09031V13.8003C1 14.4347 1.55781 15 2.19625 15H13.8769C14.5188 15 15 14.4309 15 13.8003V2.09031C15.0037 1.45937 14.5188 1 13.8803 1ZM5.33969 12.6697H3.33406V6.43375H5.33969V12.6697ZM4.40625 5.48562H4.39187C3.75 5.48562 3.33437 5.00781 3.33437 4.40969C3.33437 3.80063 3.76094 3.33406 4.41719 3.33406C5.07344 3.33406 5.475 3.79719 5.48938 4.40969C5.48906 5.00781 5.07344 5.48562 4.40625 5.48562ZM12.6697 12.6697H10.6641V9.26C10.6641 8.44313 10.3722 7.885 9.64656 7.885C9.09219 7.885 8.76406 8.26 8.61812 8.62531C8.56344 8.75656 8.54875 8.93531 8.54875 9.11781V12.6697H6.54313V6.43375H8.54875V7.30156C8.84062 6.88594 9.29656 6.28781 10.3575 6.28781C11.6741 6.28781 12.67 7.15563 12.67 9.02656L12.6697 12.6697Z" fill="white"/>
</svg>
